<svg xmlns="http://www.w3.org/2000/svg" viewBox="0 0 32 32">
  <rect width="32" height="32" rx="7" fill="#0b1d3e"/>
  <!-- Shield shape -->
  <path d="M16 5 L24 8.5 L24 16.5 C24 20.5 20.5 24 16 27 C11.5 24 8 20.5 8 16.5 L8 8.5 Z" fill="#1e50d4"/>
  <path d="M16 7.5 L22 10.5 L22 16.5 C22 19.5 19.5 22.5 16 25 C12.5 22.5 10 19.5 10 16.5 L10 10.5 Z" fill="#0b1d3e" opacity=".5"/>
  <!-- Circuit dot center -->
  <circle cx="16" cy="16" r="3.5" fill="#3b6ef6"/>
  <circle cx="16" cy="16" r="1.5" fill="white"/>
  <!-- Small connector lines -->
  <line x1="16" y1="12.5" x2="16" y2="11" stroke="#3b6ef6" stroke-width="1.2"/>
  <line x1="16" y1="19.5" x2="16" y2="21" stroke="#3b6ef6" stroke-width="1.2"/>
  <line x1="12.5" y1="16" x2="11" y2="16" stroke="#3b6ef6" stroke-width="1.2"/>
  <line x1="19.5" y1="16" x2="21" y2="16" stroke="#3b6ef6" stroke-width="1.2"/>
</svg>
